# xmcd
#
# Track frame offsets:
#	150
#	15981
#	34674
#	49415
#	67636
#	80877
#	95159
#	109579
#	125306
#	140457
#	156962
#	173625
#	193471
#	209552
#
# Disc length: 2990 seconds
#
# Revision: 0
# Processed by: cddbd v1.5.2PL0 Copyright (c) Steve Scherf et al.
# Submitted via: audiograbber 1.83.01
#
DISCID=c30bac0e
DTITLE=Various Artist - CDX 595
DYEAR=2014
DGENRE=Country
TTITLE0=Eric Church - Cold One
TTITLE1=Blackhawk - Brothers Of The Southland
TTITLE2=Kacey Jones feat. Waylon Payne - Goin' Down Hill
TTITLE3=Mike Aiken - Put A Sail On It
TTITLE4=Sawyer Brown - Walk Out Of The Rain
TTITLE5=Mitch Goudy - Ain't My Fault
TTITLE6=Jordan Anderson - American Dream
TTITLE7=Ariana Hodes - Brand New Key
TTITLE8=Crystal Day - Drown
TTITLE9=Steve Free - Ship Of Dreams
TTITLE10=Kasey Lansdale - Sorry Ain't Enough
TTITLE11=Bryan Mayer - This Is Me
TTITLE12=Marianne Allison - Till It Breaks My Heart
TTITLE13=Mindy Miller - Wrong
EXTD=
EXTT0=
EXTT1=
EXTT2=
EXTT3=
EXTT4=
EXTT5=
EXTT6=
EXTT7=
EXTT8=
EXTT9=
EXTT10=
EXTT11=
EXTT12=
EXTT13=
PLAYORDER=
